<svg width="30" height="28" viewBox="0 0 30 28" fill="none" xmlns="http://www.w3.org/2000/svg">
<path d="M12.1437 22.7821V19.7152C12.1437 18.9381 12.7757 18.3067 13.5584 18.3018H16.4326C17.2189 18.3018 17.8563 18.9346 17.8563 19.7152V22.7732C17.8562 23.4473 18.404 23.9951 19.0829 24H21.0438C21.9596 24.0023 22.8388 23.6428 23.4872 23.0007C24.1356 22.3586 24.5 21.4868 24.5 20.5775V11.8658C24.5 11.1314 24.1721 10.4347 23.6046 9.9635L16.943 4.67427C15.7785 3.74912 14.1154 3.77901 12.9854 4.74538L6.46701 9.9635C5.87274 10.4208 5.51755 11.1196 5.5 11.8658V20.5686C5.5 22.4637 7.04738 24 8.95617 24H10.8723C11.1992 24.0023 11.5135 23.8751 11.7455 23.6464C11.9775 23.4178 12.1079 23.1067 12.1079 22.7821H12.1437Z" fill="#F22764"/>
</svg>
