<svg width="30" height="28" viewBox="0 0 30 28" fill="none" xmlns="http://www.w3.org/2000/svg">
<path opacity="0.4" d="M15.9763 5.11361L18.2028 9.58789C18.3668 9.91205 18.6799 10.1372 19.041 10.1872L24.042 10.9156C24.3341 10.9566 24.5992 11.1107 24.7782 11.3458C24.9552 11.5779 25.0312 11.8721 24.9882 12.1612C24.9532 12.4013 24.8402 12.6234 24.6672 12.7935L21.0434 16.3063C20.7783 16.5514 20.6583 16.9146 20.7223 17.2698L21.6145 22.2083C21.7095 22.8046 21.3144 23.3669 20.7223 23.48C20.4783 23.519 20.2282 23.478 20.0082 23.3659L15.5472 21.0417C15.2161 20.8746 14.8251 20.8746 14.494 21.0417L10.033 23.3659C9.48491 23.657 8.80576 23.4589 8.5007 22.9187C8.38767 22.7036 8.34766 22.4584 8.38467 22.2193L9.27686 17.2798C9.34088 16.9256 9.21985 16.5604 8.95579 16.3153L5.33202 12.8045C4.90092 12.3883 4.88792 11.703 5.30301 11.2717C5.31201 11.2627 5.32201 11.2527 5.33202 11.2427C5.50405 11.0676 5.7301 10.9566 5.97415 10.9276L10.9752 10.1982C11.3353 10.1472 11.6484 9.92406 11.8134 9.59789L13.9599 5.11361C14.1509 4.72942 14.547 4.4903 14.9771 4.5003H15.1111C15.4842 4.54533 15.8093 4.77644 15.9763 5.11361Z" fill="#8AD10A"/>
<path d="M14.992 20.9171C14.7983 20.9231 14.6096 20.9752 14.4399 21.0682L10.0007 23.3871C9.45756 23.6464 8.80756 23.4452 8.50303 22.9258C8.39021 22.7136 8.34927 22.4704 8.38721 22.2322L9.27384 17.3032C9.33375 16.9449 9.21394 16.5806 8.95334 16.3284L5.32794 12.8185C4.8976 12.3971 4.88961 11.7056 5.31096 11.2742C5.31695 11.2682 5.32195 11.2632 5.32794 11.2582C5.49967 11.0881 5.72133 10.976 5.95996 10.9409L10.9652 10.2043C11.3277 10.1583 11.6422 9.93211 11.8019 9.60384L13.9776 5.06312C14.1843 4.69682 14.5806 4.47864 15 4.50166C14.992 4.7989 14.992 20.715 14.992 20.9171Z" fill="#8AD10A"/>
</svg>
