<svg width="30" height="28" viewBox="0 0 30 28" fill="none" xmlns="http://www.w3.org/2000/svg">
<path opacity="0.4" d="M21.8088 11.021C21.3573 11.021 20.7592 11.011 20.0146 11.011C18.1987 11.011 16.7055 9.508 16.7055 7.675V4.459C16.7055 4.206 16.5036 4 16.253 4H10.9636C8.49517 4 6.5 6.026 6.5 8.509V19.284C6.5 21.889 8.59022 24 11.1696 24H19.0463C21.5058 24 23.5 21.987 23.5 19.502V11.471C23.5 11.217 23.299 11.012 23.0475 11.013C22.6247 11.016 22.1177 11.021 21.8088 11.021Z" fill="#F22764"/>
<path opacity="0.4" d="M19.084 4.56737C18.785 4.25637 18.263 4.47037 18.263 4.90137V7.53837C18.263 8.64437 19.174 9.55437 20.28 9.55437C20.977 9.56237 21.945 9.56437 22.767 9.56237C23.188 9.56137 23.402 9.05837 23.11 8.75437C22.055 7.65737 20.166 5.69137 19.084 4.56737Z" fill="#F22764"/>
<path fill-rule="evenodd" clip-rule="evenodd" d="M11.9739 13.3874H15.3589C15.7699 13.3874 16.1039 13.0544 16.1039 12.6434C16.1039 12.2324 15.7699 11.8984 15.3589 11.8984H11.9739C11.5629 11.8984 11.2299 12.2324 11.2299 12.6434C11.2299 13.0544 11.5629 13.3874 11.9739 13.3874ZM11.974 18.3816H17.418C17.829 18.3816 18.163 18.0486 18.163 17.6376C18.163 17.2266 17.829 16.8926 17.418 16.8926H11.974C11.563 16.8926 11.23 17.2266 11.23 17.6376C11.23 18.0486 11.563 18.3816 11.974 18.3816Z" fill="#F22764"/>
</svg>
