<svg width="30" height="28" viewBox="0 0 30 28" fill="none" xmlns="http://www.w3.org/2000/svg">
<path d="M15.012 16.8302C13.4075 16.8302 12.1096 15.5802 12.1096 14.0102C12.1096 12.4402 13.4075 11.1802 15.012 11.1802C16.6165 11.1802 17.8837 12.4402 17.8837 14.0102C17.8837 15.5802 16.6165 16.8302 15.012 16.8302Z" fill="#F22764"/>
<path opacity="0.4" d="M24.23 16.37C24.0358 16.07 23.7599 15.77 23.4022 15.58C23.1161 15.44 22.9321 15.21 22.7686 14.94C22.2474 14.08 22.554 12.95 23.4227 12.44C24.4446 11.87 24.7716 10.6 24.1789 9.61L23.4942 8.43C22.9117 7.44 21.6342 7.09 20.6225 7.67C19.7232 8.15 18.5684 7.83 18.0472 6.98C17.8837 6.7 17.7917 6.4 17.8121 6.1C17.8428 5.71 17.7201 5.34 17.5362 5.04C17.1581 4.42 16.4734 4 15.7171 4H14.2761C13.5301 4.02 12.8454 4.42 12.4673 5.04C12.2731 5.34 12.1607 5.71 12.1811 6.1C12.2016 6.4 12.1096 6.7 11.9461 6.98C11.4249 7.83 10.2701 8.15 9.38097 7.67C8.35901 7.09 7.09178 7.44 6.49905 8.43L5.81434 9.61C5.23182 10.6 5.55885 11.87 6.57059 12.44C7.43925 12.95 7.74584 14.08 7.23486 14.94C7.06112 15.21 6.87717 15.44 6.59102 15.58C6.24356 15.77 5.93697 16.07 5.77346 16.37C5.39533 16.99 5.41577 17.77 5.7939 18.42L6.49905 19.62C6.87717 20.26 7.58232 20.66 8.31813 20.66C8.6656 20.66 9.07438 20.56 9.40141 20.36C9.6569 20.19 9.96348 20.13 10.3007 20.13C11.3125 20.13 12.1607 20.96 12.1811 21.95C12.1811 23.1 13.1213 24 14.3068 24H15.6967C16.8719 24 17.8121 23.1 17.8121 21.95C17.8428 20.96 18.691 20.13 19.7027 20.13C20.0298 20.13 20.3364 20.19 20.6021 20.36C20.9291 20.56 21.3277 20.66 21.6853 20.66C22.4109 20.66 23.1161 20.26 23.4942 19.62L24.2096 18.42C24.5775 17.75 24.6081 16.99 24.23 16.37Z" fill="#F22764"/>
</svg>
