<svg width="375" height="664" viewBox="0 0 375 664" fill="none" xmlns="http://www.w3.org/2000/svg">
<path opacity="0.08" d="M84.2764 195.769L49.4039 231.267V241.746H55.3341L55.3895 241.808C78.3188 242.976 96.5524 256.624 96.5524 279.906C96.5524 303.293 78.1535 318.795 55.0799 319.808L55.0736 319.835H54.8311C54.5525 319.835 54.2739 319.841 53.9947 319.846L53.9918 319.846C53.7122 319.851 53.432 319.856 53.1504 319.856C52.8776 319.856 52.6067 319.841 52.3363 319.826C52.1548 319.816 51.9734 319.806 51.792 319.801L-12.3299 320.021L-12.3393 320.016C-12.4031 320.017 -12.4627 320.021 -12.5265 320.021C-46.1078 320.021 -64.2998 296.017 -68.1993 264.187C-68.6653 261.219 -68.9108 258.179 -68.9185 255.082C-68.9729 253.63 -69 252.166 -69 250.691H-68.998V192.948L-68.9187 192.954V-88.837C-68.9187 -121.512 -42.4365 -148 -9.76184 -148C22.9137 -148 49.4039 -121.512 49.4039 -88.837V94.2568L155.485 -9.09082C164.933 -18.2946 177.6 -23.4465 190.792 -23.4465C235.501 -23.4465 258.24 30.2838 227.111 62.3741L170.223 121.037L215.925 179.103L237.531 205.477L244.585 199L246.113 197.753L246.195 197.766C264.701 184.177 287.457 183.227 302.174 201.268C316.957 219.39 312.499 243.032 295.261 258.402L295.273 258.427L295.085 258.581C294.869 258.757 294.657 258.937 294.444 259.117C294.23 259.299 294.015 259.481 293.796 259.659C293.585 259.832 293.365 259.991 293.146 260.15C292.999 260.257 292.852 260.364 292.708 260.475L243.161 301.178L243.151 301.18C243.13 301.198 243.11 301.215 243.09 301.233C243.063 301.256 243.037 301.279 243.009 301.302C231.953 310.321 220.311 314.226 208.802 314.033C207.891 314.074 206.972 314.095 206.044 314.095C188.911 314.095 172.709 306.309 162.014 292.933L84.2764 195.769Z" fill="#F8638B"/>
<!-- <path opacity="0.08" d="M302.349 588.235L323.473 609.738V616.085H319.881L319.847 616.123C305.958 616.831 294.913 625.098 294.913 639.201C294.913 653.367 306.058 662.757 320.035 663.371L320.039 663.387H320.186C320.354 663.387 320.522 663.391 320.691 663.394H320.692C320.862 663.397 321.033 663.4 321.204 663.4C321.368 663.4 321.531 663.391 321.694 663.382L321.697 663.382C321.807 663.376 321.917 663.37 322.027 663.366L360.868 663.5L360.874 663.497C360.912 663.497 360.948 663.5 360.987 663.5C381.329 663.5 392.349 648.958 394.711 629.676C394.992 627.88 395.141 626.04 395.146 624.166C395.179 623.286 395.195 622.398 395.195 621.504H395.194V586.527L395.146 586.53V415.837C395.146 396.045 379.105 380 359.312 380C339.519 380 323.473 396.045 323.473 415.837V526.745L259.215 464.143C253.492 458.568 245.819 455.447 237.829 455.447C210.746 455.447 196.973 487.994 215.829 507.432L250.288 542.967L222.604 578.14L209.517 594.115L205.244 590.192L204.318 589.437L204.268 589.445C193.059 581.213 179.275 580.638 170.36 591.566C161.405 602.543 164.105 616.864 174.548 626.174L174.54 626.19L174.654 626.283C174.784 626.389 174.912 626.497 175.04 626.606C175.171 626.716 175.301 626.827 175.435 626.936C175.543 627.024 175.654 627.107 175.766 627.188C175.876 627.268 175.986 627.347 176.094 627.43L206.106 652.086L206.113 652.087C206.142 652.112 206.169 652.136 206.199 652.161C212.895 657.623 219.946 659.989 226.917 659.872C227.47 659.897 228.027 659.91 228.59 659.91C238.968 659.91 248.782 655.194 255.261 647.091L302.349 588.235Z" fill="#8AD10A"/> -->
</svg>
