<svg width="104" height="186" viewBox="0 0 104 186" fill="none" xmlns="http://www.w3.org/2000/svg">
<mask id="path-1-inside-1" fill="white">
<path fill-rule="evenodd" clip-rule="evenodd" d="M35.9161 175.363C36.4102 172.626 36.331 169.341 35.5607 165.899C33.67 157.448 28.3314 151.243 23.6367 152.039C18.942 152.835 16.6689 160.331 18.5597 168.782C18.6915 169.371 18.8401 169.949 19.0041 170.515C16.9457 171.887 15.652 173.872 15.652 176.079C15.652 180.218 20.1985 183.574 25.8069 183.574C27.6971 183.574 29.4666 183.193 30.9822 182.529C31.8043 182.297 32.5441 181.851 33.1912 181.224C34.9089 179.882 35.9619 178.071 35.9619 176.079C35.9619 175.838 35.9464 175.599 35.9161 175.363Z"/>
</mask>
<path fill-rule="evenodd" clip-rule="evenodd" d="M35.9161 175.363C36.4102 172.626 36.331 169.341 35.5607 165.899C33.67 157.448 28.3314 151.243 23.6367 152.039C18.942 152.835 16.6689 160.331 18.5597 168.782C18.6915 169.371 18.8401 169.949 19.0041 170.515C16.9457 171.887 15.652 173.872 15.652 176.079C15.652 180.218 20.1985 183.574 25.8069 183.574C27.6971 183.574 29.4666 183.193 30.9822 182.529C31.8043 182.297 32.5441 181.851 33.1912 181.224C34.9089 179.882 35.9619 178.071 35.9619 176.079C35.9619 175.838 35.9464 175.599 35.9161 175.363Z" fill="#FFCFE5"/>
<path d="M35.5607 165.899L34.0969 166.226L35.5607 165.899ZM35.9161 175.363L34.44 175.096L34.3988 175.324L34.4283 175.554L35.9161 175.363ZM23.6367 152.039L23.3859 150.56L23.6367 152.039ZM18.5597 168.782L17.0958 169.109H17.0958L18.5597 168.782ZM19.0041 170.515L19.8358 171.763L20.7509 171.154L20.4448 170.098L19.0041 170.515ZM30.9822 182.529L30.5756 181.085L30.4756 181.113L30.3804 181.155L30.9822 182.529ZM33.1912 181.224L32.2676 180.042L32.2048 180.091L32.1475 180.147L33.1912 181.224ZM34.0969 166.226C34.8296 169.501 34.8938 172.582 34.44 175.096L37.3922 175.629C37.9265 172.669 37.8323 169.182 37.0245 165.571L34.0969 166.226ZM23.8875 153.518C25.4707 153.25 27.4962 154.136 29.5131 156.48C31.4849 158.772 33.1961 162.2 34.0969 166.226L37.0245 165.571C36.0345 161.146 34.1311 157.248 31.7873 154.523C29.4885 151.851 26.4974 150.033 23.3859 150.56L23.8875 153.518ZM20.0235 168.454C19.1221 164.426 19.2354 160.708 20.0641 157.975C20.908 155.193 22.3529 153.778 23.8875 153.518L23.3859 150.56C20.2258 151.096 18.1868 153.828 17.1932 157.105C16.1843 160.432 16.1065 164.687 17.0958 169.109L20.0235 168.454ZM20.4448 170.098C20.2894 169.561 20.1485 169.013 20.0235 168.454L17.0958 169.109C17.2345 169.729 17.3908 170.337 17.5634 170.933L20.4448 170.098ZM17.152 176.079C17.152 174.502 18.075 172.937 19.8358 171.763L18.1724 169.267C15.8163 170.837 14.152 173.241 14.152 176.079H17.152ZM25.8069 182.074C23.2903 182.074 21.0714 181.319 19.517 180.172C17.9622 179.024 17.152 177.56 17.152 176.079H14.152C14.152 178.737 15.6151 181.021 17.7356 182.586C19.8566 184.151 22.7151 185.074 25.8069 185.074V182.074ZM30.3804 181.155C29.0618 181.732 27.498 182.074 25.8069 182.074V185.074C27.8962 185.074 29.8715 184.653 31.5839 183.903L30.3804 181.155ZM32.1475 180.147C31.658 180.621 31.1314 180.929 30.5756 181.085L31.3887 183.973C32.4772 183.666 33.4303 183.081 34.2349 182.301L32.1475 180.147ZM34.4619 176.079C34.4619 177.506 33.7115 178.914 32.2676 180.042L34.1149 182.406C36.1062 180.85 37.4619 178.636 37.4619 176.079H34.4619ZM34.4283 175.554C34.4505 175.727 34.4619 175.902 34.4619 176.079H37.4619C37.4619 175.773 37.4423 175.471 37.4039 175.172L34.4283 175.554Z" fill="#DD9BB9" mask="url(#path-1-inside-1)"/>
<circle cx="72.8308" cy="160" r="7.25" fill="#FFCFE5" stroke="#DD9BB9" stroke-width="1.5"/>
<mask id="path-4-inside-2" fill="white">
<path fill-rule="evenodd" clip-rule="evenodd" d="M6.87427 130.252C8.33073 127.343 10.6331 124.254 13.6161 121.421C20.9594 114.448 29.6462 111.675 33.0187 115.226C36.3912 118.778 33.1723 127.31 25.829 134.283C24.6594 135.393 23.4558 136.397 22.2449 137.286C22.0542 138.642 21.544 139.972 20.6952 141.164C17.8708 145.13 12.3666 146.055 8.40105 143.23C4.43554 140.406 3.51044 134.902 6.33478 130.936C6.50517 130.697 6.6853 130.469 6.87427 130.252Z"/>
</mask>
<path fill-rule="evenodd" clip-rule="evenodd" d="M6.87427 130.252C8.33073 127.343 10.6331 124.254 13.6161 121.421C20.9594 114.448 29.6462 111.675 33.0187 115.226C36.3912 118.778 33.1723 127.31 25.829 134.283C24.6594 135.393 23.4558 136.397 22.2449 137.286C22.0542 138.642 21.544 139.972 20.6952 141.164C17.8708 145.13 12.3666 146.055 8.40105 143.23C4.43554 140.406 3.51044 134.902 6.33478 130.936C6.50517 130.697 6.6853 130.469 6.87427 130.252Z" fill="#FFCFE5"/>
<path d="M13.6161 121.421L14.649 122.509L13.6161 121.421ZM6.87427 130.252L8.21552 130.924L8.13032 131.094L8.00535 131.237L6.87427 130.252ZM33.0187 115.226L31.931 116.259L33.0187 115.226ZM25.829 134.283L26.8619 135.37L25.829 134.283ZM22.2449 137.286L20.7596 137.077L20.8476 136.451L21.3572 136.077L22.2449 137.286ZM14.649 122.509C11.775 125.238 9.58415 128.19 8.21552 130.924L5.53302 129.58C7.0773 126.496 9.49128 123.269 12.5832 120.333L14.649 122.509ZM31.931 116.259C30.8648 115.136 28.6255 114.732 25.2627 115.806C22.0105 116.844 18.1933 119.143 14.649 122.509L12.5832 120.333C16.3822 116.726 20.58 114.152 24.3502 112.948C28.0098 111.78 31.8001 111.765 34.1064 114.193L31.931 116.259ZM24.7961 133.195C28.3404 129.829 30.8337 126.136 32.0388 122.942C33.2849 119.639 32.9971 117.382 31.931 116.259L34.1064 114.193C36.4128 116.622 36.2018 120.407 34.8457 124.001C33.4486 127.704 30.6608 131.763 26.8619 135.37L24.7961 133.195ZM21.3572 136.077C22.5163 135.226 23.6716 134.263 24.7961 133.195L26.8619 135.37C25.6473 136.524 24.3952 137.568 23.1326 138.495L21.3572 136.077ZM19.4734 140.294C20.1793 139.303 20.6016 138.2 20.7596 137.077L23.7303 137.495C23.5068 139.083 22.9087 140.642 21.917 142.034L19.4734 140.294ZM9.27124 142.009C12.562 144.352 17.1296 143.585 19.4734 140.294L21.917 142.034C18.612 146.675 12.1711 147.757 7.53086 144.452L9.27124 142.009ZM7.55657 131.807C5.21282 135.097 5.98051 139.665 9.27124 142.009L7.53086 144.452C2.89057 141.147 1.80806 134.706 5.113 130.066L7.55657 131.807ZM8.00535 131.237C7.84842 131.417 7.69857 131.607 7.55657 131.807L5.113 130.066C5.31177 129.787 5.52218 129.521 5.74319 129.267L8.00535 131.237Z" fill="#DD9BB9" mask="url(#path-4-inside-2)"/>
<mask id="path-6-inside-3" fill="white">
<path fill-rule="evenodd" clip-rule="evenodd" d="M8.77244 118.677C8.77326 118.597 8.76285 118.518 8.74047 118.441C8.50962 117.645 7.0931 117.357 5.57658 117.797C4.06007 118.237 3.01783 119.238 3.24868 120.034C3.27106 120.111 3.30458 120.184 3.34826 120.251C3.34965 120.338 3.36255 120.426 3.388 120.514L9.70856 142.298C9.86246 142.828 10.4172 143.134 10.9476 142.98L14.5186 141.943C15.049 141.79 15.3543 141.235 15.2004 140.704L8.8798 118.921C8.85434 118.833 8.81791 118.751 8.77244 118.677Z"/>
</mask>
<path fill-rule="evenodd" clip-rule="evenodd" d="M8.77244 118.677C8.77326 118.597 8.76285 118.518 8.74047 118.441C8.50962 117.645 7.0931 117.357 5.57658 117.797C4.06007 118.237 3.01783 119.238 3.24868 120.034C3.27106 120.111 3.30458 120.184 3.34826 120.251C3.34965 120.338 3.36255 120.426 3.388 120.514L9.70856 142.298C9.86246 142.828 10.4172 143.134 10.9476 142.98L14.5186 141.943C15.049 141.79 15.3543 141.235 15.2004 140.704L8.8798 118.921C8.85434 118.833 8.81791 118.751 8.77244 118.677Z" fill="#FCFCFC"/>
<path d="M8.77244 118.677L7.77249 118.667L7.76955 118.954L7.91931 119.199L8.77244 118.677ZM3.34826 120.251L4.34813 120.235L4.34356 119.948L4.18743 119.707L3.34826 120.251ZM3.388 120.514L4.3484 120.236L3.388 120.514ZM9.70856 142.298L8.74817 142.577L9.70856 142.298ZM10.9476 142.98L11.2263 143.94L10.9476 142.98ZM14.5186 141.943L14.24 140.983L14.5186 141.943ZM15.2004 140.704L14.24 140.983L15.2004 140.704ZM8.8798 118.921L9.84019 118.642L8.8798 118.921ZM7.78008 118.719C7.77427 118.699 7.77235 118.681 7.77249 118.667L9.77239 118.687C9.77418 118.513 9.75142 118.336 9.70086 118.162L7.78008 118.719ZM5.85524 118.757C6.49013 118.573 7.05704 118.557 7.44124 118.635C7.87741 118.724 7.82005 118.857 7.78008 118.719L9.70086 118.162C9.43004 117.229 8.54899 116.82 7.84007 116.675C7.07916 116.521 6.17956 116.581 5.29793 116.836L5.85524 118.757ZM4.20907 119.755C4.24904 119.893 4.12938 119.811 4.45031 119.503C4.73299 119.231 5.22036 118.941 5.85524 118.757L5.29793 116.836C4.4163 117.092 3.62429 117.523 3.06443 118.061C2.54282 118.562 2.01747 119.379 2.28829 120.313L4.20907 119.755ZM4.18743 119.707C4.195 119.719 4.20326 119.735 4.20907 119.755L2.28829 120.313C2.33885 120.487 2.41416 120.648 2.5091 120.795L4.18743 119.707ZM4.3484 120.236L4.34813 120.235L2.34839 120.267C2.35118 120.442 2.37714 120.619 2.42761 120.793L4.3484 120.236ZM10.669 142.019L4.3484 120.236L2.42761 120.793L8.74817 142.577L10.669 142.019ZM10.669 142.019L10.669 142.019L8.74817 142.577C9.05597 143.637 10.1655 144.248 11.2263 143.94L10.669 142.019ZM14.24 140.983L10.669 142.019L11.2263 143.94L14.7973 142.904L14.24 140.983ZM14.24 140.983L14.24 140.983L14.7973 142.904C15.8581 142.596 16.4685 141.487 16.1607 140.426L14.24 140.983ZM7.91941 119.199L14.24 140.983L16.1607 140.426L9.84019 118.642L7.91941 119.199ZM7.91931 119.199L7.91941 119.199L9.84019 118.642C9.78971 118.468 9.71701 118.305 9.62556 118.155L7.91931 119.199Z" fill="#CECECE" mask="url(#path-6-inside-3)"/>
<path d="M8.26027 118.58C8.298 118.71 8.2564 118.975 7.88531 119.332C7.53333 119.67 6.9698 119.996 6.27323 120.198C5.57666 120.4 4.92657 120.427 4.4482 120.329C3.94384 120.227 3.7666 120.025 3.72887 119.895C3.69114 119.765 3.73274 119.499 4.10384 119.143C4.45581 118.804 5.01934 118.479 5.71591 118.277C6.41249 118.075 7.06257 118.048 7.54094 118.145C8.04531 118.248 8.22255 118.45 8.26027 118.58Z" fill="#FCFCFC" stroke="#CECECE"/>
<path d="M46.8308 171C63.3994 171 76.8308 158.464 76.8308 143C76.8308 127.536 63.3994 109 46.8308 109C30.2623 109 16.8308 127.536 16.8308 143C16.8308 158.464 30.2623 171 46.8308 171Z" fill="#FFCFE5" stroke="#DD9BB9" stroke-width="1.5"/>
<path d="M42.3308 160.5C52.5481 160.5 60.8308 150.093 60.8308 137.871C60.8308 125.65 52.5481 111 42.3308 111C32.1135 111 22.8308 125.65 22.8308 137.871C22.8308 150.093 32.1135 160.5 42.3308 160.5Z" fill="#FFECE6"/>
<mask id="path-11-inside-4" fill="white">
<path fill-rule="evenodd" clip-rule="evenodd" d="M87.6982 133.69C86.4899 130.67 84.4539 127.398 81.7183 124.327C74.9836 116.764 66.5589 113.274 62.9014 116.532C59.2438 119.789 61.7384 128.56 68.4731 136.122C69.5457 137.327 70.6612 138.428 71.7935 139.415C71.8703 140.781 72.2675 142.15 73.0137 143.409C75.4967 147.596 80.9044 148.978 85.0921 146.495C89.2798 144.012 90.6617 138.605 88.1787 134.417C88.0289 134.164 87.8684 133.922 87.6982 133.69Z"/>
</mask>
<path fill-rule="evenodd" clip-rule="evenodd" d="M87.6982 133.69C86.4899 130.67 84.4539 127.398 81.7183 124.327C74.9836 116.764 66.5589 113.274 62.9014 116.532C59.2438 119.789 61.7384 128.56 68.4731 136.122C69.5457 137.327 70.6612 138.428 71.7935 139.415C71.8703 140.781 72.2675 142.15 73.0137 143.409C75.4967 147.596 80.9044 148.978 85.0921 146.495C89.2798 144.012 90.6617 138.605 88.1787 134.417C88.0289 134.164 87.8684 133.922 87.6982 133.69Z" fill="#FFCFE5"/>
<path d="M81.7183 124.327L82.8385 123.329L81.7183 124.327ZM87.6982 133.69L86.3055 134.247L86.3762 134.423L86.4887 134.577L87.6982 133.69ZM62.9014 116.532L63.899 117.652L62.9014 116.532ZM68.4731 136.122L69.5933 135.125L68.4731 136.122ZM71.7935 139.415L73.2912 139.331L73.2557 138.7L72.7792 138.284L71.7935 139.415ZM80.5981 125.324C83.2338 128.284 85.1701 131.409 86.3055 134.247L89.0909 133.132C87.8098 129.93 85.674 126.513 82.8385 123.329L80.5981 125.324ZM63.899 117.652C65.0552 116.622 67.3205 116.407 70.5818 117.758C73.7359 119.064 77.3475 121.674 80.5981 125.324L82.8385 123.329C79.3543 119.417 75.3863 116.501 71.73 114.986C68.1809 113.516 64.4051 113.184 61.9038 115.411L63.899 117.652ZM69.5933 135.125C66.3427 131.475 64.1668 127.586 63.2329 124.302C62.2672 120.907 62.7427 118.682 63.899 117.652L61.9038 115.411C59.4025 117.639 59.2964 121.428 60.3473 125.123C61.43 128.93 63.8688 133.208 67.3529 137.12L69.5933 135.125ZM72.7792 138.284C71.6953 137.339 70.6246 136.283 69.5933 135.125L67.3529 137.12C68.4668 138.371 69.6272 139.516 70.8079 140.546L72.7792 138.284ZM74.3039 142.644C73.6833 141.597 73.3548 140.463 73.2912 139.331L70.2959 139.499C70.3859 141.1 70.8516 142.703 71.7234 144.174L74.3039 142.644ZM84.3271 145.205C80.8519 147.265 76.3644 146.119 74.3039 142.644L71.7234 144.174C74.629 149.074 80.9568 150.691 85.8571 147.785L84.3271 145.205ZM86.8885 135.182C88.949 138.657 87.8022 143.144 84.3271 145.205L85.8571 147.785C90.7574 144.88 92.3745 138.552 89.469 133.652L86.8885 135.182ZM86.4887 134.577C86.6301 134.77 86.7636 134.971 86.8885 135.182L89.469 133.652C89.2942 133.357 89.1067 133.074 88.9076 132.802L86.4887 134.577Z" fill="#DD9BB9" mask="url(#path-11-inside-4)"/>
<mask id="path-13-inside-5" fill="white">
<path fill-rule="evenodd" clip-rule="evenodd" d="M72.2012 177.022C72.7029 174.285 72.6224 171.001 71.84 167.559C69.9193 159.109 64.4962 152.903 59.7271 153.7C54.958 154.496 52.6489 161.992 54.5696 170.442C54.7035 171.031 54.8545 171.609 55.021 172.175C52.9301 173.547 51.6161 175.532 51.6161 177.739C51.6161 181.878 56.2347 185.234 61.932 185.234C63.8515 185.234 65.6485 184.853 67.1878 184.19C68.0236 183.958 68.7757 183.511 69.4335 182.884C71.1782 181.542 72.2478 179.731 72.2478 177.739C72.2478 177.497 72.2321 177.258 72.2012 177.022Z"/>
</mask>
<path fill-rule="evenodd" clip-rule="evenodd" d="M72.2012 177.022C72.7029 174.285 72.6224 171.001 71.84 167.559C69.9193 159.109 64.4962 152.903 59.7271 153.7C54.958 154.496 52.6489 161.992 54.5696 170.442C54.7035 171.031 54.8545 171.609 55.021 172.175C52.9301 173.547 51.6161 175.532 51.6161 177.739C51.6161 181.878 56.2347 185.234 61.932 185.234C63.8515 185.234 65.6485 184.853 67.1878 184.19C68.0236 183.958 68.7757 183.511 69.4335 182.884C71.1782 181.542 72.2478 179.731 72.2478 177.739C72.2478 177.497 72.2321 177.258 72.2012 177.022Z" fill="#FFCFE5"/>
<path d="M71.84 167.559L70.3773 167.891V167.891L71.84 167.559ZM72.2012 177.022L70.7258 176.752L70.6834 176.983L70.7139 177.217L72.2012 177.022ZM59.7271 153.7L59.9741 155.179L59.7271 153.7ZM54.5696 170.442L56.0323 170.109L54.5696 170.442ZM55.021 172.175L55.8438 173.43L56.7743 172.819L56.46 171.752L55.021 172.175ZM67.1878 184.19L66.7875 182.744L66.6884 182.771L66.5941 182.812L67.1878 184.19ZM69.4335 182.884L68.5188 181.695L68.4557 181.744L68.3981 181.799L69.4335 182.884ZM70.3773 167.891C71.121 171.163 71.1861 174.241 70.7258 176.752L73.6766 177.293C74.2198 174.329 74.1237 170.839 73.3027 167.226L70.3773 167.891ZM59.9741 155.179C61.6072 154.907 63.6759 155.808 65.7222 158.149C67.7258 160.441 69.463 163.869 70.3773 167.891L73.3027 167.226C72.2963 162.799 70.3616 158.898 67.9811 156.175C65.6434 153.5 62.6161 151.697 59.4801 152.22L59.9741 155.179ZM56.0323 170.109C55.1173 166.084 55.2326 162.371 56.0732 159.642C56.9272 156.87 58.3934 155.443 59.9741 155.179L59.4801 152.22C56.2917 152.752 54.2187 155.472 53.2061 158.759C52.18 162.09 52.1012 166.35 53.1069 170.774L56.0323 170.109ZM56.46 171.752C56.3023 171.216 56.1592 170.668 56.0323 170.109L53.1069 170.774C53.2478 171.394 53.4067 172.003 53.5821 172.599L56.46 171.752ZM53.1161 177.739C53.1161 176.173 54.0477 174.608 55.8438 173.43L54.1983 170.921C51.8126 172.486 50.1161 174.89 50.1161 177.739H53.1161ZM61.932 183.734C59.3655 183.734 57.1031 182.976 55.5192 181.825C53.9337 180.673 53.1161 179.21 53.1161 177.739H50.1161C50.1161 180.408 51.6078 182.692 53.7559 184.252C55.9055 185.814 58.8011 186.734 61.932 186.734V183.734ZM66.5941 182.812C65.2499 183.391 63.6557 183.734 61.932 183.734V186.734C64.0472 186.734 66.0471 186.315 67.7815 185.567L66.5941 182.812ZM68.3981 181.799C67.8993 182.274 67.36 182.585 66.7875 182.744L67.588 185.635C68.6872 185.331 69.6522 184.748 70.4688 183.969L68.3981 181.799ZM70.7478 177.739C70.7478 179.156 69.9908 180.563 68.5188 181.695L70.3481 184.073C72.3657 182.521 73.7478 180.306 73.7478 177.739H70.7478ZM70.7139 177.217C70.7363 177.389 70.7478 177.563 70.7478 177.739H73.7478C73.7478 177.432 73.7278 177.128 73.6886 176.828L70.7139 177.217Z" fill="#DD9BB9" mask="url(#path-13-inside-5)"/>
<path d="M33.0039 34.6892C31.1563 26.5759 31.1039 17.7905 34.8341 9.9425C35.9999 7.48968 37.5178 5.16288 38.5582 4.16018C40.3127 2.46951 42.7617 2.89839 44.3502 4.47599C49.8028 9.89155 47.6636 19.8099 47.7733 26.7996C47.8551 32.0829 47.7624 37.6184 49.0454 42.7826C50.3724 48.1225 54.7733 53.1262 51.9107 58.0325C46.1738 67.8661 33.8691 38.4949 33.0039 34.6892Z" fill="#FFCFE5" stroke="#DD9BB9" stroke-width="1.5" stroke-miterlimit="10" stroke-linecap="round"/>
<path d="M47.5602 53.2035C46.6852 53.2617 45.4693 52.6461 44.6752 51.7419C43.0516 49.8964 42.2317 47.4504 41.1209 45.2938C39.2481 41.6577 37.5045 37.8806 36.5912 33.8735C35.0265 27.0029 35.5967 19.5463 38.3352 11.0724C38.6761 10.0215 39.9133 7.29936 41.382 7.90859C41.8983 8.12228 42.2555 8.59492 42.5547 9.06635C44.8091 12.609 44.6677 17.579 44.5597 21.6349C44.3833 28.1241 43.8106 34.3028 44.8788 40.7508C45.5015 44.5 47.5166 47.3959 48.4745 50.9152C48.9061 52.4943 48.3846 53.1494 47.5602 53.2035Z" fill="#FFECE6"/>
<path d="M65.8887 33.6892C67.7363 25.5759 67.7886 16.7905 64.0585 8.9425C62.8926 6.48968 61.3748 4.16288 60.3344 3.16018C58.5799 1.46951 56.1309 1.89839 54.5423 3.47599C49.0898 8.89155 51.229 18.8099 51.1193 25.7996C51.0375 31.0829 51.1302 36.6184 49.8472 41.7826C48.5202 47.1225 44.1193 52.1262 46.9819 57.0325C52.7187 66.8661 65.0235 37.4949 65.8887 33.6892Z" fill="#FFCFE5" stroke="#DD9BB9" stroke-width="1.5" stroke-miterlimit="10" stroke-linecap="round"/>
<path d="M51.3324 52.2035C52.2074 52.2617 53.4233 51.6461 54.2173 50.7419C55.841 48.8964 56.6609 46.4504 57.7716 44.2938C59.6445 40.6577 61.3881 36.8806 62.3014 32.8735C63.8661 26.0029 63.2959 18.5463 60.5574 10.0724C60.2165 9.02153 58.9792 6.29936 57.5106 6.90859C56.9943 7.12228 56.6371 7.59492 56.3379 8.06635C54.0835 11.609 54.2249 16.579 54.3329 20.6349C54.5093 27.1241 55.082 33.3028 54.0138 39.7508C53.3911 43.5 51.376 46.3959 50.4181 49.9152C49.9865 51.4943 50.508 52.1494 51.3324 52.2035Z" fill="#FFECE6"/>
<path d="M82.4 43.2118L103 35.6286L101.716 56.2286H87.98L82.4 43.2118Z" fill="#F7F7F7" stroke="#CECECE" stroke-width="1.5"/>
<mask id="path-20-inside-6" fill="white">
<path d="M47.5385 121.198C73.7932 121.198 95.0769 99.9143 95.0769 73.6595C95.0769 47.4047 73.7932 26.121 47.5385 26.121C21.2837 26.121 0 47.4047 0 73.6595C0 99.9143 21.2837 121.198 47.5385 121.198Z"/>
</mask>
<path d="M47.5385 121.198C73.7932 121.198 95.0769 99.9143 95.0769 73.6595C95.0769 47.4047 73.7932 26.121 47.5385 26.121C21.2837 26.121 0 47.4047 0 73.6595C0 99.9143 21.2837 121.198 47.5385 121.198Z" fill="#FFCFE5"/>
<path d="M93.5769 73.6595C93.5769 99.0858 72.9648 119.698 47.5385 119.698V122.698C74.6217 122.698 96.5769 100.743 96.5769 73.6595H93.5769ZM47.5385 119.698C22.1121 119.698 1.5 99.0858 1.5 73.6595H-1.5C-1.5 100.743 20.4553 122.698 47.5385 122.698V119.698ZM1.5 73.6595C1.5 48.2332 22.1121 27.621 47.5385 27.621V24.621C20.4553 24.621 -1.5 46.5763 -1.5 73.6595H1.5ZM47.5385 27.621C72.9648 27.621 93.5769 48.2332 93.5769 73.6595H96.5769C96.5769 46.5763 74.6217 24.621 47.5385 24.621V27.621Z" fill="#DD9BB9" mask="url(#path-20-inside-6)"/>
<path d="M73 59.9999V61.041C73 62.1224 73.8959 62.9999 75 62.9999C76.1041 62.9999 77 62.1224 77 61.041V60.0017" stroke="#9ECDF0" stroke-width="1.5" stroke-miterlimit="10" stroke-linecap="round" stroke-linejoin="round"/>
<path d="M78 66.9999V68.041C78 69.1224 78.8959 69.9999 80 69.9999C81.1041 69.9999 82 69.1224 82 68.041V67.0017" stroke="#9ECDF0" stroke-width="1.5" stroke-miterlimit="10" stroke-linecap="round" stroke-linejoin="round"/>
<circle cx="38" cy="85.9999" r="10" fill="#FFECE6"/>
<path d="M19 69.121L26 72.121" stroke="#231F20" stroke-width="1.5" stroke-linecap="round"/>
<path d="M59 69.121L52 72.121" stroke="#231F20" stroke-width="1.5" stroke-linecap="round"/>
<path d="M39.4218 81.1447C38.3631 82.285 36.6353 82.285 35.5766 81.1447L34.5933 80.0869C33.5378 78.9402 33.9273 77.9999 35.4698 77.9999H39.5318C41.0711 77.9999 41.4638 78.9402 40.4051 80.0869L39.4218 81.1447Z" fill="#231F20"/>
<path d="M37.7455 81.4614C37.7455 84.0263 39.9589 86.1056 42.6928 86.1056C43.7176 86.1056 44.882 85.7112 45.4911 84.681" stroke="#231F20" stroke-width="1.5" stroke-miterlimit="10" stroke-linecap="round" stroke-linejoin="round"/>
<path d="M37.7456 81.4614C37.7456 84.0263 35.5322 86.1056 32.7956 86.1056C31.768 86.1056 30.7646 85.8883 30 84.681" stroke="#231F20" stroke-width="1.5" stroke-miterlimit="10" stroke-linecap="round" stroke-linejoin="round"/>
<path fill-rule="evenodd" clip-rule="evenodd" d="M74.5355 36.1323C67.3157 31.2553 58.6455 28.4131 49.321 28.4131C24.1637 28.4131 3.76978 49.1014 3.76978 74.6218C3.76978 88.3379 9.6608 100.658 19.0161 109.121C8.6407 100.677 2 87.7199 2 73.1923C2 47.7478 22.371 27.121 47.5 27.121C57.6246 27.121 66.9768 30.4694 74.5355 36.1323Z" fill="#FFE8E0"/>
<path d="M22.1409 77.7206C24.276 77.7206 26.0069 75.9897 26.0069 73.8544C26.0069 71.7192 24.276 69.9882 22.1409 69.9882C20.0057 69.9882 18.2748 71.7192 18.2748 73.8544C18.2748 75.9897 20.0057 77.7206 22.1409 77.7206Z" fill="#231F20"/>
<path d="M24.0618 73.8543C24.5182 73.8543 24.8881 73.4844 24.8881 73.028C24.8881 72.5716 24.5182 72.2016 24.0618 72.2016C23.6054 72.2016 23.2355 72.5716 23.2355 73.028C23.2355 73.4844 23.6054 73.8543 24.0618 73.8543Z" fill="white"/>
<path d="M56.6205 77.7206C58.7556 77.7206 60.4865 75.9897 60.4865 73.8544C60.4865 71.7192 58.7556 69.9882 56.6205 69.9882C54.4853 69.9882 52.7544 71.7192 52.7544 73.8544C52.7544 75.9897 54.4853 77.7206 56.6205 77.7206Z" fill="#231F20"/>
<path d="M58.5387 73.8543C58.9951 73.8543 59.3651 73.4844 59.3651 73.028C59.3651 72.5716 58.9951 72.2016 58.5387 72.2016C58.0824 72.2016 57.7124 72.5716 57.7124 73.028C57.7124 73.4844 58.0824 73.8543 58.5387 73.8543Z" fill="white"/>
<path d="M66 85.9999C70.4183 85.9999 74 84.4329 74 82.4999C74 80.5669 70.4183 78.9999 66 78.9999C61.5817 78.9999 58 80.5669 58 82.4999C58 84.4329 61.5817 85.9999 66 85.9999Z" fill="#FFECE6"/>
<path d="M14 84.9999C18.4183 84.9999 22 83.4329 22 81.4999C22 79.5669 18.4183 77.9999 14 77.9999C9.58173 77.9999 6 79.5669 6 81.4999C6 83.4329 9.58173 84.9999 14 84.9999Z" fill="#FFECE6"/>
<path d="M81.6073 41.1747L13.4689 39.5901C9.92522 42.8764 5.3124 49.8901 3.96118 54.6439H90.3231C88.9719 50.6824 85.151 44.4649 81.6073 41.1747Z" fill="#FCFCFC" stroke="#CECECE" stroke-width="1.5"/>
<path d="M27 116.499C31.5 119 47.5 127.5 69 116C74.5 118 77.5 120.5 79.5 123L66.5 129.501L72.5 136.501V140.001H17C16.8046 137.169 18.5 130 19.5 128L14.5 121.501C14.5 121.501 22 113.374 27 116.499Z" fill="#51B5FF"/>
<path d="M27 116.499C31.5 119 47.5 127.5 69 116C74.5 118 77.5 120.5 79.5 123L66.5 129.501L72.5 136.501V140.001H17C16.8046 137.169 18.5 130 19.5 128M27 116.499C22 113.374 14.5 121.501 14.5 121.501L19.5 128M27 116.499C24.02 120.472 21.5 124 19.5 128" stroke="#4C7898" stroke-width="1.5" stroke-linecap="round" stroke-linejoin="round"/>
</svg>
