<svg width="90" height="24" viewBox="0 0 90 24" fill="none" xmlns="http://www.w3.org/2000/svg">
<path d="M86.876 6.09442C88.6013 6.09442 90 4.73014 90 3.04721C90 1.36428 88.6013 0 86.876 0C85.1506 0 83.7519 1.36428 83.7519 3.04721C83.7519 4.73014 85.1506 6.09442 86.876 6.09442Z" fill="#333333"/>
<path d="M24.3162 7.45369C25.9291 7.45369 27.2366 8.72906 27.2366 10.3022V16.4192C27.2366 18.838 26.5193 20.707 25.0847 22.0264C23.6706 23.3257 21.6725 23.9754 19.0902 23.9754C16.6719 23.9754 14.8377 23.2858 13.5876 21.9065C12.3784 23.2858 10.5545 23.9754 8.11567 23.9754C5.51291 23.9754 3.5045 23.3258 2.09044 22.0264C0.696784 20.707 0 18.838 0 16.4192V10.3022C0 8.72901 1.30752 7.45369 2.9204 7.45369C4.53329 7.45369 5.84081 8.72906 5.84081 10.3022V16.0294C5.84081 17.1688 6.03552 18.0084 6.42491 18.5481C6.81429 19.0679 7.41884 19.3278 8.2386 19.3278C9.05836 19.3278 9.67321 19.0579 10.0831 18.5182C10.493 17.9785 10.6979 17.1489 10.6979 16.0294V10.3022C10.6979 8.72901 12.0054 7.45369 13.6182 7.45369C15.2312 7.45369 16.5386 8.72906 16.5386 10.3022V16.0294C16.5386 17.1489 16.7436 17.9785 17.1534 18.5182C17.5633 19.0579 18.1782 19.3278 18.9979 19.3278C19.8177 19.3278 20.4222 19.0679 20.8116 18.5481C21.201 18.0084 21.3957 17.1688 21.3957 16.0294V10.3022C21.3958 8.72906 22.7033 7.45369 24.3162 7.45369Z" fill="#333333"/>
<path d="M86.8816 7.69069C85.2688 7.69069 83.9611 8.96601 83.9611 10.5393V21.094C83.9611 22.6672 85.2688 23.9426 86.8816 23.9426C88.4941 23.9426 89.8017 22.6673 89.8017 21.094V10.5393C89.8017 8.96605 88.4941 7.69069 86.8816 7.69069Z" fill="#333333"/>
<path d="M52.5455 4.70149C52.5455 3.12823 53.8531 1.85291 55.466 1.85291C57.0784 1.85291 58.3861 3.12827 58.3861 4.70149V21.1279C58.3861 22.7012 57.0784 23.9765 55.466 23.9765C53.8531 23.9765 52.5455 22.7011 52.5455 21.1279V4.70149Z" fill="#333333"/>
<path fill-rule="evenodd" clip-rule="evenodd" d="M29.6763 14.2444C29.6763 9.04274 33.9993 4.82603 39.3321 4.82603C44.6305 4.82603 48.9321 8.98857 48.9874 14.1439C48.9884 14.1846 48.989 14.2255 48.989 14.2666V21.5058C48.989 21.6019 48.9854 21.6953 48.9776 21.7861C48.9649 22.1037 48.887 22.3978 48.7555 22.6596C48.3696 23.4999 47.5488 23.9526 46.5973 23.9526C45.6457 23.9526 44.826 23.5 44.4399 22.6598C44.3854 22.5513 44.3408 22.4374 44.3063 22.3185C42.8535 23.1718 41.1516 23.6627 39.3321 23.6627C33.9993 23.6627 29.6763 19.446 29.6763 14.2444ZM35.1734 14.2444C35.1734 16.4847 37.0353 18.3008 39.3321 18.3008C41.629 18.3008 43.4909 16.4847 43.4909 14.2444C43.4909 12.004 41.629 10.1879 39.3321 10.1879C37.0353 10.1879 35.1734 12.004 35.1734 14.2444Z" fill="#333333"/>
<path d="M68.0847 19.7256L69.8061 18.0165L73.6433 22.6947C74.1713 23.3388 74.971 23.7137 75.8168 23.7137C75.8612 23.7137 75.9053 23.7127 75.9489 23.7108C76.5183 23.721 77.0942 23.5331 77.6412 23.0979L77.6482 23.092L80.0944 21.1322C80.1015 21.1269 80.1088 21.1217 80.116 21.1166C80.1268 21.1089 80.1377 21.1012 80.1481 21.0929C80.1589 21.0843 80.1695 21.0756 80.1801 21.0668C80.1906 21.0581 80.2011 21.0495 80.2118 21.041L80.221 21.0336L80.2204 21.0324C81.0714 20.2923 81.2914 19.154 80.5617 18.2815C79.8352 17.4129 78.7119 17.4586 77.7985 18.1129L77.7944 18.1123L77.7189 18.1723L77.3708 18.4841L76.3154 17.2275L74.0486 14.4183L76.8566 11.5938C78.3932 10.0487 77.2708 7.46169 75.0639 7.46169C74.4127 7.46169 73.7875 7.70974 73.3211 8.15289L68.0847 13.1289V4.31327C68.0847 2.74005 66.7771 1.46469 65.1642 1.46469C63.5513 1.46469 62.2441 2.74005 62.2441 4.31327V17.882L62.2399 17.8817V20.6619C62.2399 20.7353 62.2412 20.8082 62.2441 20.8804C62.2449 21.023 62.2564 21.163 62.2779 21.2999C62.4672 22.8383 63.3656 24 65.0274 24L65.0367 23.9998L68.2023 23.9894C68.2246 23.9901 68.2469 23.9921 68.2694 23.9921C68.2833 23.9921 68.2972 23.9918 68.3111 23.9916C68.3248 23.9913 68.3386 23.9911 68.3523 23.9911H68.3643L68.3646 23.9898C69.5036 23.941 70.4118 23.1946 70.4118 22.0686C70.4118 20.9476 69.5117 20.2904 68.3799 20.2342L68.3772 20.2312H68.0847V19.7256Z" fill="#333333"/>
</svg>
