<svg width="32" height="32" viewBox="0 0 32 32" fill="none" xmlns="http://www.w3.org/2000/svg">
<path fill-rule="evenodd" clip-rule="evenodd" d="M23.3596 14.048C23.3596 14.048 23.4978 14.75 23.5449 14.7567C26.0902 15.1197 28 16.6044 28 19.25C28 22.1495 25.6495 24.5 22.75 24.5H9.25C6.3505 24.5 4 22.1495 4 19.25C4 16.6044 5.95692 14.4158 8.50223 14.0528C8.54939 14.0461 8.59559 14.0447 8.64044 14.048C9.31666 10.6008 12.3546 8 16 8C19.6454 8 22.6833 10.6008 23.3596 14.048Z" fill="#D4F5FF"/>
<path d="M9.64706 24.5C6.52827 24.5 4 22.0376 4 19C4 16.3468 5.92887 14.1324 8.49533 13.6145C9.37762 10.3819 12.4032 8 16 8C20.0661 8 23.4023 11.044 23.7371 14.92C26.1451 15.2419 28 17.2537 28 19.6875C28 22.3454 25.7878 24.5 23.0588 24.5H9.64706Z" stroke="#A8E2EA" stroke-width="2" stroke-linecap="round" stroke-linejoin="round"/>
</svg>
