<svg width="32" height="32" viewBox="0 0 32 32" fill="none" xmlns="http://www.w3.org/2000/svg">
<path d="M8.39239 6.30564C8.39239 5.58456 8.97694 5 9.69803 5C10.4191 5 11.0037 5.58456 11.0037 6.30564V7.96112L12.4374 7.13338C13.0618 6.77284 13.8604 6.9868 14.2209 7.61128C14.5814 8.23576 14.3675 9.03428 13.743 9.39482L12.3093 10.2226L13.743 11.0503C14.3675 11.4109 14.5814 12.2094 14.2209 12.8339C13.8603 13.4583 13.0618 13.6723 12.4374 13.3118L11.0037 12.484V14.1395C11.0037 14.8606 10.4191 15.4451 9.69803 15.4451C8.97694 15.4451 8.39239 14.8606 8.39239 14.1395V12.484L6.95869 13.3117C6.33421 13.6723 5.53569 13.4583 5.17515 12.8338C4.8146 12.2094 5.02857 11.4108 5.65304 11.0503L7.08673 10.2226L5.65304 9.39483C5.02856 9.03428 4.8146 8.23576 5.17514 7.61129C5.53568 6.98681 6.3342 6.77285 6.95868 7.13339L8.39239 7.96114V6.30564Z" fill="#BDBDBD"/>
<path d="M20.3297 9.28997C20.3297 8.56888 20.9142 7.98432 21.6353 7.98432C22.3564 7.98432 22.941 8.56888 22.941 9.28997V10.9454L24.3747 10.1177C24.9991 9.75716 25.7976 9.97112 26.1582 10.5956C26.5187 11.2201 26.3048 12.0186 25.6803 12.3791L24.2466 13.2069L25.6803 14.0346C26.3048 14.3952 26.5187 15.1937 26.1582 15.8182C25.7976 16.4427 24.9991 16.6566 24.3746 16.2961L22.941 15.4683V17.1238C22.941 17.8449 22.3564 18.4295 21.6353 18.4295C20.9142 18.4295 20.3297 17.8449 20.3297 17.1238V15.4683L18.896 16.2961C18.2715 16.6566 17.473 16.4426 17.1124 15.8182C16.7519 15.1937 16.9659 14.3952 17.5903 14.0346L19.024 13.2069L17.5903 12.3791C16.9659 12.0186 16.7519 11.2201 17.1124 10.5956C17.473 9.97113 18.2715 9.75717 18.896 10.1177L20.3297 10.9455V9.28997Z" fill="#BDBDBD"/>
<path d="M11.3767 17.4969C11.3767 16.7758 11.9613 16.1912 12.6824 16.1912C13.4034 16.1912 13.988 16.7758 13.988 17.4969V19.1523L15.4217 18.3246C16.0462 17.9641 16.8447 18.178 17.2052 18.8025C17.5658 19.427 17.3518 20.2255 16.7273 20.586L15.2936 21.4138L16.7273 22.2415C17.3518 22.6021 17.5658 23.4006 17.2052 24.0251C16.8447 24.6495 16.0462 24.8635 15.4217 24.503L13.988 23.6752V25.3307C13.988 26.0518 13.4034 26.6363 12.6824 26.6363C11.9613 26.6363 11.3767 26.0518 11.3767 25.3307V23.6752L9.94301 24.503C9.31853 24.8635 8.52001 24.6495 8.15947 24.0251C7.79893 23.4006 8.01289 22.6021 8.63737 22.2415L10.0711 21.4138L8.63736 20.586C8.01288 20.2255 7.79892 19.427 8.15946 18.8025C8.52001 18.178 9.31853 17.9641 9.943 18.3246L11.3767 19.1524V17.4969Z" fill="#BDBDBD"/>
</svg>
