<svg width="32" height="32" viewBox="0 0 32 32" fill="none" xmlns="http://www.w3.org/2000/svg">
<path d="M20.4619 12.7755C20.4001 12.5962 20.2469 12.4667 20.0646 12.4398L14.4868 11.6129L17.0456 5.72224C17.114 5.56369 17.1004 5.37974 17.0084 5.23368C16.917 5.08807 16.7598 5 16.5915 5H8.80208C8.53434 5 8.31483 5.21861 8.30533 5.49423L7.94664 15.9627C7.93759 16.2243 8.12143 16.4508 8.37261 16.488L12.2505 17.0636L7.06204 26.7239C6.94048 26.9513 7.00226 27.2358 7.20621 27.3881C7.29411 27.4534 7.39556 27.4845 7.49701 27.4845C7.63163 27.4845 7.76524 27.428 7.86269 27.3186L20.3599 13.2941C20.4845 13.1542 20.5236 12.9547 20.4619 12.7755Z" fill="#FFB900"/>
<path d="M22.4551 18.1261L25.9333 12.1016" stroke="#BDBDBD" stroke-width="2" stroke-linecap="round" stroke-linejoin="round"/>
</svg>
