<svg width="75" height="88" viewBox="0 0 75 88" fill="none" xmlns="http://www.w3.org/2000/svg">
<path d="M49.1652 27.1077C50.6742 20.3641 49.8523 13.4113 47.6705 6.5387C47.2635 5.25784 45.4787 2.56598 44.629 1.73256C43.1961 0.327307 41.1959 0.683782 39.8985 1.99505C35.4454 6.49635 37.1925 14.7403 37.1029 20.55C37.0361 24.9414 37.1118 29.5424 36.0639 33.8347C34.9802 38.2732 31.3859 42.4322 33.7238 46.5102C38.4092 54.6836 48.4586 30.2709 49.1652 27.1077Z" fill="#FFCFE5" stroke="#DD9BB9" stroke-miterlimit="10" stroke-linecap="round"/>
<path d="M37.2767 42.4964C37.9914 42.5448 38.9844 42.0331 39.6329 41.2815C40.959 39.7476 41.6286 37.7146 42.5358 35.922C44.0654 32.8998 45.4894 29.7603 46.2352 26.4297C47.5132 20.719 47.0475 14.5212 44.8109 7.47791C44.5325 6.60444 43.522 4.34182 42.3226 4.8482C41.9009 5.02582 41.6091 5.41867 41.3648 5.81051C39.5236 8.75508 39.6391 12.886 39.7273 16.2572C39.8713 21.6509 40.3391 26.7865 39.4667 32.1459C38.9581 35.2623 37.3124 37.6693 36.53 40.5944C36.1775 41.907 36.6035 42.4515 37.2767 42.4964Z" fill="#FFECE6"/>
<path d="M22.3965 27.1032C20.8907 20.3588 21.7159 13.4065 23.901 6.53494C24.3087 5.25428 26.0947 2.5633 26.9448 1.7303C28.3784 0.325759 30.3784 0.683225 31.6752 1.99514C36.1262 6.49864 34.3751 14.7417 34.462 20.5514C34.5267 24.9429 34.4487 29.5438 35.4945 33.8367C36.5762 38.2757 40.1684 42.4365 37.8286 46.5133C33.1393 54.6845 23.1015 30.2668 22.3965 27.1032Z" fill="#FFCFE5" stroke="#DD9BB9" stroke-miterlimit="10" stroke-linecap="round"/>
<path d="M34.2774 42.4977C33.5628 42.5457 32.57 42.0336 31.9218 41.2817C30.5965 39.7471 29.9278 37.7137 29.0215 35.9207C27.4934 32.8977 26.0709 29.7575 25.3266 26.4266C24.0514 20.7152 24.5201 14.5177 26.76 7.47548C27.0389 6.60214 28.0504 4.34003 29.2496 4.847C29.6712 5.02483 29.9628 5.41782 30.2069 5.80979C32.0467 8.75527 31.9292 12.8862 31.8394 16.2573C31.6928 21.6509 31.2226 26.7863 32.0924 32.1462C32.5995 35.2627 34.2441 37.6705 35.0251 40.5961C35.3769 41.9088 34.9507 42.4531 34.2774 42.4977Z" fill="#FFECE6"/>
<path d="M59.2786 31.1457L74.0352 25.6174L73.1153 40.6354H63.2757L59.2786 31.1457Z" fill="#F7F7F7" stroke="#CECECE"/>
<mask id="path-6-inside-1" fill="white">
<path d="M34.3061 88C53.1135 88 68.3598 72.4835 68.3598 53.343C68.3598 34.2025 53.1135 18.686 34.3061 18.686C15.4988 18.686 0.252441 34.2025 0.252441 53.343C0.252441 72.4835 15.4988 88 34.3061 88Z"/>
</mask>
<path d="M34.3061 88C53.1135 88 68.3598 72.4835 68.3598 53.343C68.3598 34.2025 53.1135 18.686 34.3061 18.686C15.4988 18.686 0.252441 34.2025 0.252441 53.343C0.252441 72.4835 15.4988 88 34.3061 88Z" fill="#FFCFE5"/>
<path d="M67.3598 53.343C67.3598 71.9479 52.5447 87 34.3061 87V89C53.6823 89 69.3598 73.0192 69.3598 53.343H67.3598ZM34.3061 87C16.0676 87 1.25244 71.9479 1.25244 53.343H-0.747559C-0.747559 73.0192 14.93 89 34.3061 89V87ZM1.25244 53.343C1.25244 34.7381 16.0676 19.686 34.3061 19.686V17.686C14.93 17.686 -0.747559 33.6668 -0.747559 53.343H1.25244ZM34.3061 19.686C52.5447 19.686 67.3598 34.7381 67.3598 53.343H69.3598C69.3598 33.6668 53.6823 17.686 34.3061 17.686V19.686Z" fill="#DD9BB9" mask="url(#path-6-inside-1)"/>
<ellipse cx="28.6601" cy="63.0611" rx="8.26213" ry="8.38385" fill="#FFECE6"/>
<path d="M31.1748 62.443C29.0194 62.443 28.301 60.4144 28.0957 59.7805C27.172 62.443 25.3246 62.0626 24.7087 62.443C25.3043 67.0074 26.8262 69.6224 28.0957 69.6224C30.559 69.6224 31.0721 64.218 31.1748 62.443Z" fill="#EF81B4" stroke="#231F20"/>
<path d="M16.3703 56.1355C18.1506 56.1355 19.5938 54.6667 19.5938 52.8548C19.5938 51.0429 18.1506 49.574 16.3703 49.574C14.59 49.574 13.1467 51.0429 13.1467 52.8548C13.1467 54.6667 14.59 56.1355 16.3703 56.1355Z" fill="#231F20"/>
<path d="M16.7283 53.2192C17.5196 53.2192 18.161 52.7296 18.161 52.1257C18.161 51.5217 17.5196 51.0321 16.7283 51.0321C15.9371 51.0321 15.2957 51.5217 15.2957 52.1257C15.2957 52.7296 15.9371 53.2192 16.7283 53.2192Z" fill="white"/>
<path d="M15.2683 54.6216C15.6489 54.6216 15.9573 54.3077 15.9573 53.9204C15.9573 53.5331 15.6489 53.2192 15.2683 53.2192C14.8878 53.2192 14.5793 53.5331 14.5793 53.9204C14.5793 54.3077 14.8878 54.6216 15.2683 54.6216Z" fill="white"/>
<path d="M41.8776 56.1355C43.6579 56.1355 45.1011 54.6667 45.1011 52.8548C45.1011 51.0429 43.6579 49.574 41.8776 49.574C40.0973 49.574 38.6541 51.0429 38.6541 52.8548C38.6541 54.6667 40.0973 56.1355 41.8776 56.1355Z" fill="#231F20"/>
<path d="M42.2357 53.2192C43.0269 53.2192 43.6683 52.7296 43.6683 52.1257C43.6683 51.5217 43.0269 51.0321 42.2357 51.0321C41.4444 51.0321 40.803 51.5217 40.803 52.1257C40.803 52.7296 41.4444 53.2192 42.2357 53.2192Z" fill="white"/>
<path d="M40.7757 54.6216C41.1562 54.6216 41.4647 54.3077 41.4647 53.9204C41.4647 53.5331 41.1562 53.2192 40.7757 53.2192C40.3951 53.2192 40.0867 53.5331 40.0867 53.9204C40.0867 54.3077 40.3951 54.6216 40.7757 54.6216Z" fill="white"/>
<path d="M28.4918 59.1569C27.7334 59.9883 26.4957 59.9883 25.7373 59.1569L25.0329 58.3858C24.2768 57.5498 24.5559 56.8643 25.6608 56.8643H28.5705C29.6732 56.8643 29.9545 57.5498 29.1961 58.3858L28.4918 59.1569Z" fill="#231F20"/>
<path d="M27.291 59.0308C27.291 60.9007 28.8766 62.4166 30.835 62.4166C31.5691 62.4166 32.4032 62.129 32.8395 61.3779" stroke="#231F20" stroke-miterlimit="10" stroke-linecap="round" stroke-linejoin="round"/>
<path d="M27.2912 59.0308C27.2912 60.9007 25.7056 62.4166 23.7453 62.4166C23.0092 62.4166 22.2904 62.2581 21.7427 61.3779" stroke="#231F20" stroke-miterlimit="10" stroke-linecap="round" stroke-linejoin="round"/>
<path fill-rule="evenodd" clip-rule="evenodd" d="M54.5502 25.9848C49.3631 22.4292 43.1339 20.3571 36.4346 20.3571C18.3605 20.3571 3.7085 35.4395 3.7085 54.0446C3.7085 64.0439 7.94076 73.0257 14.6619 79.1954C7.20788 73.0393 2.43701 63.5933 2.43701 53.0024C2.43701 34.4527 17.0725 19.4151 35.1263 19.4151C42.4004 19.4151 49.1196 21.8563 54.5502 25.9848Z" fill="#FFE8E0"/>
<path d="M47.531 61.2386C50.696 61.2386 53.2617 60.0962 53.2617 58.687C53.2617 57.2778 50.696 56.1354 47.531 56.1354C44.366 56.1354 41.8003 57.2778 41.8003 58.687C41.8003 60.0962 44.366 61.2386 47.531 61.2386Z" fill="#FFECE6"/>
<path d="M10.9976 61.2386C14.1626 61.2386 16.7283 60.0962 16.7283 58.687C16.7283 57.2778 14.1626 56.1354 10.9976 56.1354C7.83258 56.1354 5.26685 57.2778 5.26685 58.687C5.26685 60.0962 7.83258 61.2386 10.9976 61.2386Z" fill="#FFECE6"/>
<path d="M58.7111 29.6606L9.90083 28.5054C7.36237 30.9012 4.05802 36.0144 3.09009 39.4801H64.9546C63.9867 36.592 61.2496 32.0593 58.7111 29.6606Z" fill="#FCFCFC" stroke="#CECECE"/>
</svg>
