<svg width="16" height="16" viewBox="0 0 16 16" fill="none" xmlns="http://www.w3.org/2000/svg">
<path fill-rule="evenodd" clip-rule="evenodd" d="M3.19712 13.612H12.8518C13.6165 13.572 14.2045 12.9207 14.1651 12.156C14.1565 12.0013 14.1231 11.8486 14.0645 11.706L9.21312 3.21532C8.84246 2.54532 7.99912 2.30265 7.32912 2.67398C7.10112 2.79932 6.91312 2.98732 6.78712 3.21532L1.93579 11.706C1.64779 12.4153 1.98912 13.2233 2.69779 13.512C2.84179 13.57 2.99379 13.6033 3.14846 13.612" fill="#F22764"/>
<path d="M3.19712 13.612H12.8518C13.6165 13.572 14.2045 12.9207 14.1651 12.156C14.1565 12.0013 14.1231 11.8487 14.0645 11.706L9.21312 3.21532C8.84246 2.54532 7.99912 2.30265 7.32912 2.67398C7.10112 2.79932 6.91312 2.98732 6.78712 3.21532L1.93579 11.706C1.64779 12.4153 1.98912 13.2233 2.69779 13.512C2.84179 13.57 2.99379 13.6033 3.14846 13.612" stroke="#F22764" stroke-width="1.3" stroke-linecap="round" stroke-linejoin="round"/>
<path d="M8 6V9.33333" stroke="white" stroke-width="1.3" stroke-linecap="round" stroke-linejoin="round"/>
<path d="M7.99774 11.0206H8.00218" stroke="white" stroke-width="1.3" stroke-linecap="round" stroke-linejoin="round"/>
</svg>
