<svg width="16" height="16" viewBox="0 0 16 16" fill="none" xmlns="http://www.w3.org/2000/svg">
<path fill-rule="evenodd" clip-rule="evenodd" d="M11.6267 4.1576C11.6533 4.20422 11.7 4.23751 11.76 4.23751C13.36 4.23751 14.6667 5.54273 14.6667 7.14095V11.0966C14.6667 12.6948 13.36 14 11.76 14H4.24001C2.63334 14 1.33334 12.6948 1.33334 11.0966V7.14095C1.33334 5.54273 2.63334 4.23751 4.24001 4.23751C4.29334 4.23751 4.34668 4.21088 4.36668 4.1576L4.40668 4.07769C4.42966 4.02932 4.45325 3.97963 4.4772 3.92919C4.64774 3.56996 4.83643 3.17253 4.95334 2.93896C5.26001 2.33962 5.78001 2.00666 6.42668 2H9.56668C10.2133 2.00666 10.74 2.33962 11.0467 2.93896C11.1517 3.14872 11.3116 3.48661 11.4658 3.81228C11.4976 3.87948 11.5292 3.94617 11.56 4.0111L11.6267 4.1576ZM11.14 6.71476C11.14 7.04773 11.4067 7.3141 11.74 7.3141C12.0733 7.3141 12.3467 7.04773 12.3467 6.71476C12.3467 6.3818 12.0733 6.10877 11.74 6.10877C11.4067 6.10877 11.14 6.3818 11.14 6.71476ZM6.84668 7.74695C7.16001 7.43396 7.56668 7.26748 8.00001 7.26748C8.43334 7.26748 8.84001 7.43396 9.14668 7.74029C9.45334 8.04662 9.62001 8.45283 9.62001 8.88568C9.61334 9.77803 8.89334 10.5039 8.00001 10.5039C7.56668 10.5039 7.16001 10.3374 6.85334 10.0311C6.54668 9.72475 6.38001 9.31854 6.38001 8.88568V8.87902C6.37334 8.45949 6.54001 8.05328 6.84668 7.74695ZM9.84668 10.737C9.37334 11.2098 8.72001 11.5028 8.00001 11.5028C7.30001 11.5028 6.64668 11.2297 6.14668 10.737C5.65334 10.2375 5.38001 9.5849 5.38001 8.88568C5.37334 8.19312 5.64668 7.54051 6.14001 7.04106C6.64001 6.54162 7.30001 6.26859 8.00001 6.26859C8.70001 6.26859 9.36001 6.54162 9.85334 7.0344C10.3467 7.53385 10.62 8.19312 10.62 8.88568C10.6133 9.61154 10.32 10.2641 9.84668 10.737Z" fill="#4F4F4F"/>
</svg>
