<svg width="75" height="66" viewBox="0 0 75 66" fill="none" xmlns="http://www.w3.org/2000/svg">
<path d="M59.6416 16.2641L73.9998 11.0001L73.1048 25.3001H63.5308L59.6416 16.2641Z" fill="#F7F7F7" stroke="#CECECE"/>
<mask id="path-2-inside-1" fill="white">
<path d="M34.791 66C54.0056 66 69.5821 51.2254 69.5821 33C69.5821 14.7746 54.0056 3.05176e-05 34.791 3.05176e-05C15.5765 3.05176e-05 0 14.7746 0 33C0 51.2254 15.5765 66 34.791 66Z"/>
</mask>
<path d="M34.791 66C54.0056 66 69.5821 51.2254 69.5821 33C69.5821 14.7746 54.0056 3.05176e-05 34.791 3.05176e-05C15.5765 3.05176e-05 0 14.7746 0 33C0 51.2254 15.5765 66 34.791 66Z" fill="#D9EDB4"/>
<path d="M68.5821 33C68.5821 50.624 53.5038 65 34.791 65V67C54.5074 67 70.5821 51.8269 70.5821 33H68.5821ZM34.791 65C16.0783 65 1 50.624 1 33H-1C-1 51.8269 15.0747 67 34.791 67V65ZM1 33C1 15.3761 16.0783 1.00003 34.791 1.00003V-0.999969C15.0747 -0.999969 -1 14.1732 -1 33H1ZM34.791 1.00003C53.5038 1.00003 68.5821 15.3761 68.5821 33H70.5821C70.5821 14.1732 54.5074 -0.999969 34.791 -0.999969V1.00003Z" fill="#B6C983" mask="url(#path-2-inside-1)"/>
<path d="M15.667 36.5182C17.3238 36.5182 18.667 35.1805 18.667 33.5303C18.667 31.8801 17.3238 30.5423 15.667 30.5423C14.0101 30.5423 12.667 31.8801 12.667 33.5303C12.667 35.1805 14.0101 36.5182 15.667 36.5182Z" fill="#231F20"/>
<path d="M16.0003 33.8622C16.7367 33.8622 17.3336 33.4163 17.3336 32.8662C17.3336 32.3162 16.7367 31.8703 16.0003 31.8703C15.2639 31.8703 14.667 32.3162 14.667 32.8662C14.667 33.4163 15.2639 33.8622 16.0003 33.8622Z" fill="white"/>
<path d="M14.6412 35.1395C14.9954 35.1395 15.2824 34.8536 15.2824 34.5009C15.2824 34.1481 14.9954 33.8622 14.6412 33.8622C14.2871 33.8622 14 34.1481 14 34.5009C14 34.8536 14.2871 35.1395 14.6412 35.1395Z" fill="white"/>
<path d="M39 36.5182C40.6569 36.5182 42 35.1805 42 33.5303C42 31.8801 40.6569 30.5423 39 30.5423C37.3431 30.5423 36 31.8801 36 33.5303C36 35.1805 37.3431 36.5182 39 36.5182Z" fill="#231F20"/>
<path d="M39.3333 33.8622C40.0697 33.8622 40.6667 33.4163 40.6667 32.8662C40.6667 32.3162 40.0697 31.8703 39.3333 31.8703C38.5969 31.8703 38 32.3162 38 32.8662C38 33.4163 38.5969 33.8622 39.3333 33.8622Z" fill="white"/>
<path d="M37.9742 35.1395C38.3284 35.1395 38.6154 34.8536 38.6154 34.5009C38.6154 34.1481 38.3284 33.8622 37.9742 33.8622C37.6201 33.8622 37.333 34.1481 37.333 34.5009C37.333 34.8536 37.6201 35.1395 37.9742 35.1395Z" fill="white"/>
<path fill-rule="evenodd" clip-rule="evenodd" d="M59.3298 11.1922C53.2968 5.86237 45.1044 2.58654 36.0805 2.58654C17.5377 2.58654 2.50586 16.4185 2.50586 33.4811C2.50586 41.6888 5.98414 49.149 11.6583 54.6816C5.2943 49.0594 1.33301 41.1517 1.33301 32.3926C1.33301 15.33 16.3649 1.49802 34.9077 1.49802C44.5307 1.49802 53.2082 5.22332 59.3298 11.1922Z" fill="#EEFBD7"/>
<path d="M23 38.5099L23.3333 42.6866C23.6667 44.1536 24.6003 45.3145 26.1619 45.3145C27.7234 45.3145 28.6667 44.1536 28.9904 42.6866L29.3333 38.5099" fill="#EF81B4"/>
<path d="M23 38.5099L23.3333 42.6866C23.6667 44.1536 24.6003 45.3145 26.1619 45.3145C27.7234 45.3145 28.6667 44.1536 28.9904 42.6866L29.3333 38.5099H23Z" stroke="#000A00" stroke-miterlimit="10" stroke-linecap="round" stroke-linejoin="round"/>
<path d="M48.786 44.2682C51.9103 44.2682 54.4431 42.8267 54.4431 41.0487C54.4431 39.2706 51.9103 37.8291 48.786 37.8291C45.6617 37.8291 43.1289 39.2706 43.1289 41.0487C43.1289 42.8267 45.6617 44.2682 48.786 44.2682Z" fill="#FFD8E1"/>
<path d="M9.99399 43.3643C13.1183 43.3643 15.6511 41.9229 15.6511 40.1448C15.6511 38.3667 13.1183 36.9253 9.99399 36.9253C6.86968 36.9253 4.33691 38.3667 4.33691 40.1448C4.33691 41.9229 6.86968 43.3643 9.99399 43.3643Z" fill="#FFD8E1"/>
<path d="M28.6666 18.4247C27.2222 19.0628 24.6 21.1047 25.6666 24.1675C27 27.9961 32 26.4009 32 24.1675C32 21.9342 29.6666 21.2961 28.6666 22.8913" stroke="#B6C983" stroke-linecap="round"/>
<path d="M60.1941 11.5501L10.4926 9.90009C7.97775 12.1814 4.82465 15.9501 3.86572 19.2501L66.821 22.5501C65.862 19.8001 62.7089 13.8341 60.1941 11.5501Z" fill="#FCFCFC" stroke="#CECECE"/>
</svg>
